<?xml version="1.0" encoding="UTF-8"?>
<svg xmlns="http://www.w3.org/2000/svg" xmlns:xlink="http://www.w3.org/1999/xlink" version="1.1" width="512" height="512" x="0" y="0" viewBox="0 0 512 512" style="enable-background:new 0 0 512 512" xml:space="preserve" class="">
  <g>
    <path d="M256.551 100.198c-85.606 0-155.252 69.645-155.252 155.252 0 27.293 7.183 54.138 20.775 77.632a8.262 8.262 0 0 0 11.284 3.014 8.26 8.26 0 0 0 3.014-11.284c-12.139-20.984-18.556-44.969-18.556-69.362 0-76.499 62.236-138.735 138.735-138.735s138.735 62.236 138.735 138.735-62.236 138.735-138.735 138.735c-38.491 0-74.271-15.397-100.748-43.355a8.258 8.258 0 1 0-11.992 11.358c29.629 31.284 69.667 48.513 112.74 48.513 85.606 0 155.252-69.645 155.252-155.252s-69.646-155.251-155.252-155.251z" fill="#ffffff" opacity="1" data-original="#000000" class=""/>
    <path d="M256.551 155.252c-55.25 0-100.198 44.948-100.198 100.198s44.948 100.198 100.198 100.198S356.749 310.7 356.749 255.45 311.8 155.252 256.551 155.252zm0 183.879c-46.143 0-83.682-37.539-83.682-83.682s37.539-83.682 83.682-83.682 83.682 37.539 83.682 83.682-37.54 83.682-83.682 83.682zM397.488 78.176c-20.035 0-36.335 16.3-36.335 36.336s16.3 36.335 36.335 36.335 36.336-16.3 36.336-36.335-16.301-36.336-36.336-36.336zm0 56.155c-10.928 0-19.819-8.891-19.819-19.819s8.891-19.819 19.819-19.819 19.819 8.891 19.819 19.819-8.891 19.819-19.819 19.819z" fill="#ffffff" opacity="1" data-original="#000000" class=""/>
    <path d="M398.039 0H113.961C51.023 0 0 51.023 0 113.961v284.077C0 460.977 51.023 512 113.961 512h284.077C460.977 512 512 460.977 512 398.039V113.961C512 51.023 460.977 0 398.039 0zm97.445 398.039c0 53.817-43.628 97.445-97.445 97.445H113.961c-53.817 0-97.445-43.628-97.445-97.445V113.961c0-53.817 43.628-97.445 97.445-97.445h284.077c53.817 0 97.445 43.628 97.445 97.445v284.078z" fill="#ffffff" opacity="1" data-original="#000000" class=""/>
    <path d="M394.735 38.538h-277.47c-43.479 0-78.727 35.248-78.727 78.727v277.471c0 43.479 35.248 78.727 78.727 78.727h277.471c43.479 0 78.727-35.248 78.727-78.727V117.265c-.001-43.48-35.248-78.727-78.728-78.727zm62.211 356.197c0 34.358-27.853 62.211-62.211 62.211h-277.47c-34.358 0-62.211-27.853-62.211-62.211v-277.47c0-34.358 27.853-62.211 62.211-62.211h277.471c34.358 0 62.211 27.853 62.211 62.211v277.47z" fill="#ffffff" opacity="1" data-original="#000000" class=""/>
  </g>
</svg>
